<?xml version="1.0" encoding="utf-8"?>
<!-- Generator: Adobe Illustrator 27.5.0, SVG Export Plug-In . SVG Version: 6.00 Build 0)  -->
<svg version="1.1" id="Layer_1" xmlns="http://www.w3.org/2000/svg" xmlns:xlink="http://www.w3.org/1999/xlink" x="0px" y="0px"
	 viewBox="0 0 432 288" style="enable-background:new 0 0 432 288;" xml:space="preserve">
<g>
	<rect y="0" style="fill:#F7F7F7;" width="432" height="288"/>
	<g>
		<g>
			<path style="fill:#DE0040;" d="M57.004,224.57h-0.659l-8.414-20.553h2.021l7.288,17.707c3.114-7.614,4.994-12.264,5.641-13.947
				c0.254-0.627,0.396-1.143,0.425-1.55c0.029-0.406-0.02-0.712-0.146-0.918c-0.127-0.205-0.293-0.35-0.499-0.433
				c-0.205-0.084-0.464-0.125-0.777-0.125v-0.734h3.255v0.499L57.004,224.57z"/>
			<path style="fill:#DE0040;" d="M69.956,211.768c0.768,0,1.431,0.074,1.989,0.221c0.56,0.146,0.996,0.333,1.31,0.558
				c0.314,0.226,0.564,0.52,0.748,0.881c0.185,0.362,0.305,0.715,0.359,1.058c0.055,0.343,0.083,0.748,0.083,1.218v8.867h-1.348
				l-0.15-2.349c-0.488,0.773-1.172,1.368-2.049,1.783c-0.878,0.417-1.67,0.624-2.378,0.624c-0.967,0-1.783-0.276-2.446-0.829
				c-0.664-0.553-0.995-1.393-0.995-2.518c0-0.617,0.117-1.16,0.352-1.631c0.235-0.472,0.567-0.85,0.999-1.14
				c0.43-0.288,0.89-0.528,1.38-0.721c0.489-0.192,1.057-0.334,1.702-0.426c0.646-0.091,1.227-0.15,1.74-0.18
				c0.514-0.029,1.079-0.043,1.695-0.043c0-0.079-0.01-0.523-0.029-1.332c-0.011-0.434-0.051-0.793-0.12-1.079
				c-0.069-0.286-0.204-0.56-0.403-0.82c-0.2-0.262-0.502-0.454-0.905-0.577c-0.404-0.123-0.915-0.185-1.533-0.185
				c-1.156,0-2.311,0.236-3.462,0.71l-0.245-1.28l0.429-0.21c0.286-0.13,0.736-0.263,1.353-0.397
				C68.646,211.836,69.288,211.768,69.956,211.768z M72.947,220.224v-2.495c-4.248,0-6.371,1.125-6.371,3.376
				c0,0.764,0.236,1.381,0.71,1.85c0.474,0.47,1.104,0.704,1.893,0.704c0.967,0,1.837-0.364,2.609-1.094
				C72.56,221.837,72.947,221.056,72.947,220.224z"/>
			<path style="fill:#DE0040;" d="M79.113,224.57v-18.526c0-0.265-0.01-0.46-0.029-0.588c-0.02-0.127-0.08-0.268-0.184-0.426
				c-0.103-0.156-0.276-0.267-0.521-0.33c-0.245-0.063-0.578-0.096-0.998-0.096v-0.587h3.229v20.553H79.113z"/>
			<path style="fill:#DE0040;" d="M89.193,211.916c0.586,0,1.115,0.063,1.589,0.19c0.474,0.128,0.875,0.289,1.203,0.484
				c0.329,0.196,0.622,0.435,0.878,0.72c0.256,0.284,0.459,0.565,0.609,0.844c0.149,0.279,0.277,0.58,0.384,0.903
				c0.106,0.323,0.179,0.602,0.218,0.837c0.038,0.234,0.067,0.475,0.087,0.719c0.02,0.245,0.026,0.406,0.021,0.484
				c-0.005,0.079-0.007,0.143-0.007,0.191h-8.677c-0.01,0.205-0.015,0.406-0.015,0.602c0,1.586,0.328,2.824,0.983,3.715
				c0.734,0.998,1.792,1.497,3.172,1.497c0.397,0,0.794-0.073,1.191-0.221c0.396-0.146,0.728-0.31,0.992-0.491
				c0.265-0.181,0.52-0.39,0.765-0.624c0.245-0.235,0.404-0.398,0.478-0.492c0.073-0.093,0.13-0.169,0.169-0.228l0.971,0.91
				l-0.189,0.265c-0.126,0.186-0.327,0.406-0.604,0.66c-0.276,0.255-0.597,0.51-0.961,0.764c-0.363,0.255-0.822,0.473-1.376,0.653
				c-0.553,0.182-1.131,0.271-1.732,0.271c-1.618,0-2.915-0.607-3.891-1.82c-0.977-1.213-1.464-2.721-1.464-4.521
				c0-1.859,0.48-3.377,1.441-4.551C86.389,212.502,87.644,211.916,89.193,211.916z M85.559,216.702h7.148
				c0-0.177-0.018-0.397-0.053-0.661c-0.034-0.265-0.124-0.614-0.268-1.05c-0.145-0.436-0.333-0.829-0.566-1.182
				c-0.233-0.353-0.578-0.658-1.035-0.917c-0.456-0.26-0.987-0.39-1.593-0.39c-0.596,0-1.125,0.132-1.586,0.396
				c-0.462,0.265-0.814,0.57-1.058,0.918c-0.243,0.347-0.444,0.741-0.604,1.182c-0.159,0.44-0.261,0.788-0.305,1.042
				C85.596,216.295,85.569,216.515,85.559,216.702z"/>
			<path style="fill:#DE0040;" d="M96.671,211.916h3.229v2.672c1.014-0.842,2.052-1.521,3.114-2.041
				c1.063-0.519,1.954-0.778,2.676-0.778c1.033,0,1.761,0.268,2.182,0.801c0.421,0.533,0.631,1.441,0.631,2.723v9.278h-1.497v-8.896
				c0-0.949-0.132-1.622-0.395-2.018c-0.264-0.396-0.795-0.595-1.594-0.595c-0.761,0-1.646,0.248-2.654,0.742
				c-1.009,0.494-1.829,1.049-2.463,1.666v9.102h-1.497v-10.632c0-0.264-0.011-0.459-0.03-0.586c-0.02-0.127-0.08-0.268-0.183-0.425
				c-0.104-0.156-0.277-0.266-0.521-0.329c-0.245-0.063-0.578-0.096-0.998-0.096V211.916z"/>
			<path style="fill:#DE0040;" d="M114.611,208.626v3.318h3.876v0.646h-3.876v8.368c0,0.245,0.002,0.445,0.008,0.602
				c0.005,0.157,0.02,0.346,0.044,0.565c0.024,0.221,0.061,0.396,0.109,0.528c0.049,0.133,0.115,0.268,0.198,0.404
				c0.083,0.137,0.193,0.237,0.331,0.301c0.137,0.063,0.298,0.096,0.484,0.096c0.342,0,0.771-0.115,1.284-0.346
				c0.514-0.229,0.881-0.413,1.102-0.55c0.22-0.137,0.394-0.25,0.521-0.338l0.235,0.499l-0.588,0.47
				c-0.401,0.323-0.9,0.637-1.497,0.939c-0.587,0.313-1.076,0.47-1.468,0.47c-1.508,0-2.261-1.076-2.261-3.229v-8.779h-1.85v-0.646
				h1.85v-3.318H114.611z"/>
			<path style="fill:#DE0040;" d="M122.509,224.57v-10.654c0-0.265-0.011-0.461-0.029-0.589c-0.021-0.127-0.081-0.27-0.184-0.427
				c-0.104-0.156-0.277-0.268-0.521-0.331c-0.245-0.064-0.578-0.096-0.998-0.096v-0.587h3.229v12.684H122.509z M122.464,207.937
				c-0.205-0.206-0.308-0.455-0.308-0.749c0-0.293,0.103-0.548,0.308-0.764c0.206-0.215,0.456-0.322,0.749-0.322
				c0.294,0,0.528,0.107,0.705,0.322c0.176,0.216,0.264,0.471,0.264,0.764c0,0.294-0.1,0.543-0.298,0.749
				c-0.198,0.205-0.434,0.309-0.705,0.309C122.909,208.246,122.67,208.142,122.464,207.937z"/>
			<path style="fill:#DE0040;" d="M127.207,211.916h3.229v2.672c1.014-0.842,2.052-1.521,3.114-2.041
				c1.063-0.519,1.954-0.778,2.676-0.778c1.033,0,1.761,0.268,2.182,0.801c0.421,0.533,0.631,1.441,0.631,2.723v9.278h-1.497v-8.896
				c0-0.949-0.132-1.622-0.395-2.018c-0.264-0.396-0.795-0.595-1.594-0.595c-0.761,0-1.645,0.248-2.654,0.742
				c-1.009,0.494-1.829,1.049-2.463,1.666v9.102h-1.497v-10.632c0-0.264-0.011-0.459-0.03-0.586c-0.02-0.127-0.08-0.268-0.183-0.425
				c-0.104-0.156-0.277-0.266-0.521-0.329c-0.245-0.063-0.578-0.096-0.998-0.096V211.916z"/>
			<path style="fill:#DE0040;" d="M147.652,211.916c0.586,0,1.115,0.063,1.589,0.19c0.474,0.128,0.875,0.289,1.203,0.484
				c0.329,0.196,0.622,0.435,0.878,0.72c0.256,0.284,0.459,0.565,0.609,0.844c0.149,0.279,0.277,0.58,0.384,0.903
				c0.107,0.323,0.179,0.602,0.218,0.837c0.038,0.234,0.067,0.475,0.087,0.719c0.02,0.245,0.026,0.406,0.021,0.484
				c-0.005,0.079-0.007,0.143-0.007,0.191h-8.677c-0.01,0.205-0.015,0.406-0.015,0.602c0,1.586,0.328,2.824,0.983,3.715
				c0.734,0.998,1.792,1.497,3.172,1.497c0.398,0,0.794-0.073,1.191-0.221c0.396-0.146,0.728-0.31,0.992-0.491
				c0.265-0.181,0.52-0.39,0.765-0.624c0.245-0.235,0.404-0.398,0.477-0.492c0.073-0.093,0.13-0.169,0.169-0.228l0.971,0.91
				l-0.189,0.265c-0.126,0.186-0.327,0.406-0.605,0.66c-0.276,0.255-0.597,0.51-0.961,0.764c-0.363,0.255-0.822,0.473-1.376,0.653
				c-0.553,0.182-1.131,0.271-1.732,0.271c-1.618,0-2.915-0.607-3.891-1.82c-0.977-1.213-1.464-2.721-1.464-4.521
				c0-1.859,0.48-3.377,1.441-4.551C144.848,212.502,146.103,211.916,147.652,211.916z M144.018,216.702h7.148
				c0-0.177-0.018-0.397-0.053-0.661c-0.034-0.265-0.124-0.614-0.268-1.05c-0.145-0.436-0.333-0.829-0.566-1.182
				c-0.233-0.353-0.578-0.658-1.035-0.917c-0.456-0.26-0.987-0.39-1.593-0.39c-0.596,0-1.125,0.132-1.586,0.396
				c-0.462,0.265-0.814,0.57-1.058,0.918c-0.243,0.347-0.444,0.741-0.604,1.182c-0.159,0.44-0.261,0.788-0.305,1.042
				C144.055,216.295,144.028,216.515,144.018,216.702z"/>
			<path style="fill:#DE0040;" d="M153.647,205.338c0-0.421,0.142-0.743,0.426-0.969c0.283-0.226,0.592-0.343,0.925-0.353h0.015
				c0.323,0,0.624,0.157,0.902,0.47c0.279,0.313,0.419,0.832,0.419,1.557c0,0.401-0.073,0.807-0.221,1.218
				c-0.146,0.411-0.31,0.757-0.491,1.035c-0.182,0.279-0.392,0.554-0.632,0.822c-0.239,0.27-0.406,0.443-0.499,0.521
				c-0.093,0.078-0.169,0.142-0.228,0.19l-0.337-0.514l0.381-0.396c0.216-0.234,0.421-0.577,0.617-1.027
				c0.137-0.313,0.205-0.617,0.205-0.91c0-0.107-0.01-0.216-0.029-0.323c-0.411-0.01-0.719-0.098-0.925-0.265
				C153.823,206.122,153.647,205.769,153.647,205.338z"/>
			<path style="fill:#DE0040;" d="M156.142,222.837l0.852-1.027c0.039,0.039,0.096,0.093,0.169,0.161
				c0.073,0.069,0.237,0.188,0.491,0.36c0.255,0.171,0.52,0.322,0.793,0.455c0.274,0.132,0.624,0.252,1.05,0.359
				c0.426,0.107,0.854,0.161,1.284,0.161c0.851,0,1.51-0.213,1.975-0.639c0.465-0.425,0.697-0.917,0.697-1.475
				c0-0.343-0.122-0.661-0.366-0.954c-0.245-0.294-0.565-0.549-0.962-0.764c-0.396-0.216-0.832-0.428-1.307-0.639
				c-0.475-0.211-0.949-0.438-1.424-0.683c-0.475-0.245-0.91-0.514-1.307-0.808c-0.396-0.294-0.717-0.655-0.962-1.086
				c-0.244-0.431-0.367-0.91-0.367-1.439c0-0.881,0.338-1.624,1.014-2.231c0.675-0.606,1.619-0.91,2.833-0.91
				c0.636,0,1.255,0.067,1.857,0.198c0.602,0.133,1.044,0.265,1.328,0.396l0.426,0.198v2.818h-0.587
				c-0.01-0.078-0.027-0.184-0.052-0.315c-0.024-0.132-0.107-0.369-0.249-0.712c-0.143-0.343-0.318-0.643-0.528-0.902
				c-0.211-0.26-0.524-0.497-0.94-0.713c-0.416-0.215-0.893-0.322-1.431-0.322c-0.686,0-1.248,0.193-1.688,0.58
				c-0.44,0.387-0.661,0.917-0.661,1.593c0,0.431,0.125,0.821,0.375,1.174c0.249,0.352,0.572,0.648,0.969,0.889
				c0.396,0.239,0.837,0.472,1.321,0.697c0.484,0.225,0.969,0.455,1.453,0.689c0.484,0.235,0.934,0.487,1.349,0.757
				c0.414,0.269,0.752,0.607,1.013,1.013c0.261,0.406,0.392,0.858,0.392,1.357c0,1.067-0.405,1.936-1.215,2.606
				c-0.811,0.67-1.795,1.006-2.955,1.006c-0.577,0-1.133-0.065-1.666-0.194c-0.533-0.129-0.974-0.283-1.321-0.463
				c-0.348-0.179-0.65-0.357-0.91-0.536c-0.259-0.18-0.447-0.334-0.565-0.463L156.142,222.837z"/>
		</g>
		<g>
			<path style="fill:#1B2F47;" d="M86.865,197.973v5.493h-1.06v-2.344h-2.491v2.344h-1.068v-5.493h1.068v2.22h2.491v-2.22H86.865z"
				/>
			<path style="fill:#1B2F47;" d="M92.095,203.466l2.166-5.493h0.866l2.159,5.493h-1.13l-0.503-1.37h-1.926l-0.503,1.37H92.095z
				 M94.695,199.126l-0.789,2.22h1.555L94.695,199.126z"/>
			<path style="fill:#1B2F47;" d="M102.516,203.466v-5.493h2.329c0.253,0,0.486,0.053,0.7,0.159
				c0.214,0.105,0.398,0.245,0.553,0.417c0.155,0.173,0.276,0.369,0.364,0.588c0.088,0.219,0.131,0.439,0.131,0.661
				c0,0.232-0.041,0.458-0.123,0.677c-0.083,0.219-0.199,0.414-0.349,0.584c-0.149,0.171-0.33,0.307-0.541,0.41
				c-0.212,0.103-0.444,0.155-0.696,0.155h-1.3v1.841H102.516z M103.585,200.688h1.237c0.196,0,0.36-0.08,0.491-0.24
				c0.132-0.16,0.197-0.376,0.197-0.65c0-0.139-0.021-0.264-0.062-0.375c-0.041-0.111-0.096-0.205-0.162-0.282
				c-0.067-0.078-0.146-0.136-0.236-0.174c-0.091-0.039-0.182-0.058-0.274-0.058h-1.191V200.688z"/>
			<path style="fill:#1B2F47;" d="M111.962,203.466v-5.493h2.329c0.253,0,0.486,0.053,0.7,0.159
				c0.214,0.105,0.398,0.245,0.553,0.417c0.155,0.173,0.276,0.369,0.364,0.588c0.088,0.219,0.131,0.439,0.131,0.661
				c0,0.232-0.041,0.458-0.123,0.677c-0.083,0.219-0.199,0.414-0.349,0.584c-0.149,0.171-0.33,0.307-0.541,0.41
				c-0.212,0.103-0.444,0.155-0.696,0.155h-1.3v1.841H111.962z M113.031,200.688h1.237c0.196,0,0.36-0.08,0.491-0.24
				c0.132-0.16,0.197-0.376,0.197-0.65c0-0.139-0.021-0.264-0.062-0.375c-0.041-0.111-0.096-0.205-0.162-0.282
				c-0.067-0.078-0.146-0.136-0.236-0.174c-0.091-0.039-0.182-0.058-0.274-0.058h-1.191V200.688z"/>
			<path style="fill:#1B2F47;" d="M121.843,197.973l1.354,2.646l1.377-2.646h1.153l-1.996,3.574v1.919h-1.061v-1.934l-1.988-3.559
				H121.843z"/>
		</g>
		<g>
			<path style="fill:#1B2F47;" d="M138.927,235.297v-5.493h1.996c0.449,0,0.842,0.072,1.18,0.217
				c0.338,0.144,0.621,0.34,0.848,0.588c0.227,0.247,0.397,0.538,0.511,0.87c0.113,0.333,0.17,0.688,0.17,1.064
				c0,0.418-0.063,0.796-0.189,1.133c-0.126,0.338-0.309,0.627-0.545,0.867c-0.237,0.24-0.523,0.426-0.855,0.557
				c-0.333,0.131-0.705,0.197-1.118,0.197H138.927z M142.556,232.543c0-0.263-0.036-0.505-0.108-0.727
				c-0.072-0.222-0.178-0.413-0.317-0.573c-0.139-0.16-0.311-0.284-0.515-0.371c-0.203-0.088-0.435-0.132-0.692-0.132h-0.928v3.621
				h0.928c0.264,0,0.497-0.046,0.7-0.139c0.204-0.093,0.374-0.221,0.511-0.383c0.137-0.162,0.241-0.354,0.314-0.576
				C142.52,233.041,142.556,232.8,142.556,232.543z"/>
			<path style="fill:#1B2F47;" d="M148.374,235.297l2.166-5.493h0.866l2.159,5.493h-1.13l-0.503-1.37h-1.926l-0.503,1.37H148.374z
				 M150.974,230.957l-0.789,2.22h1.555L150.974,230.957z"/>
			<path style="fill:#1B2F47;" d="M158.819,229.804l1.354,2.646l1.377-2.646h1.153l-1.996,3.574v1.919h-1.061v-1.934l-1.988-3.559
				H158.819z"/>
		</g>
	</g>
	<g>
		<polygon style="fill:#DE0040;" points="189.251,44.359 187.32,43.423 185.454,44.483 185.747,42.357 184.162,40.91 
			186.275,40.532 187.161,38.577 188.174,40.47 190.307,40.709 188.82,42.256 		"/>
		<polygon style="fill:#DE0040;" points="194.637,160.012 195.578,157.239 193.826,154.892 196.754,154.93 198.445,152.539 
			199.314,155.335 202.111,156.204 199.72,157.895 199.757,160.823 197.411,159.072 		"/>
		<polygon style="fill:#DE0040;" points="329.283,175.319 326.253,175.135 324.384,177.527 323.623,174.588 320.771,173.55 
			323.33,171.918 323.437,168.884 325.78,170.814 328.698,169.978 327.586,172.803 		"/>
		<polygon style="fill:#DE0040;" points="411.11,54.375 412.58,52.25 411.663,49.834 414.138,50.575 416.152,48.957 416.212,51.54 
			418.374,52.955 415.935,53.81 415.257,56.304 413.691,54.249 		"/>
		<polygon style="fill:#DE0040;" points="320.779,30.185 318.531,30.735 317.71,32.898 316.492,30.93 314.181,30.817 
			315.677,29.052 315.07,26.819 317.211,27.695 319.147,26.428 318.975,28.736 		"/>
		<polygon style="fill:#DE0040;" points="372.181,227.099 369.936,227.087 368.654,228.93 367.971,226.791 365.822,226.141 
			367.645,224.831 367.599,222.587 369.409,223.916 371.529,223.179 370.824,225.31 		"/>
		<polygon style="fill:#DE0040;" points="151.456,122.028 154.043,121.031 154.688,118.335 156.436,120.487 159.199,120.268 
			157.692,122.595 158.755,125.156 156.076,124.441 153.969,126.243 153.821,123.475 		"/>
		<polygon style="fill:#DE0040;" points="372.936,88.012 370.806,87.664 369.311,89.223 368.983,87.089 367.04,86.149 
			368.968,85.178 369.261,83.039 370.781,84.573 372.906,84.19 371.916,86.109 		"/>
		<polygon style="fill:#1B2F47;" points="413.377,109.934 414.623,107.92 413.669,105.752 415.97,106.314 417.736,104.738 
			417.913,107.099 419.958,108.292 417.767,109.19 417.264,111.503 415.733,109.697 		"/>
		<polygon style="fill:#1B2F47;" points="270.511,138.658 268.603,138.76 267.605,140.391 266.918,138.607 265.059,138.162 
			266.543,136.957 266.392,135.052 267.996,136.091 269.762,135.358 269.269,137.205 		"/>
		<polygon style="fill:#1B2F47;" points="382.763,27.54 379.735,27.075 377.635,29.306 377.142,26.283 374.371,24.975 
			377.094,23.571 377.481,20.532 379.658,22.688 382.668,22.117 381.29,24.854 		"/>
		<polygon style="fill:#1B2F47;" points="228.181,45.304 228.528,43.173 226.97,41.678 229.104,41.351 230.044,39.407 
			231.015,41.335 233.154,41.628 231.62,43.148 232.003,45.273 230.083,44.284 		"/>
		<polygon style="fill:#1B2F47;" points="334.763,211.225 332.854,211.327 331.857,212.958 331.17,211.174 329.311,210.729 
			330.795,209.524 330.644,207.619 332.248,208.658 334.013,207.925 333.521,209.772 		"/>
		<polygon style="fill:#1B2F47;" points="406.574,207.445 408.042,205.882 407.585,203.786 409.526,204.699 411.378,203.617 
			411.11,205.745 412.711,207.171 410.604,207.574 409.742,209.538 408.708,207.659 		"/>
		<polygon style="fill:#1B2F47;" points="149.566,30.941 148.45,29.813 146.887,30.093 147.615,28.683 146.866,27.283 
			148.432,27.54 149.532,26.395 149.772,27.964 151.201,28.656 149.783,29.369 		"/>
		<polygon style="fill:#1B2F47;" points="320.779,131.855 318.648,131.507 317.154,133.065 316.826,130.931 314.882,129.991 
			316.81,129.02 317.104,126.881 318.623,128.415 320.748,128.033 319.759,129.952 		"/>
		<path style="fill:#1B2F47;" d="M202.102,86.689c0,0.522-0.423,0.945-0.945,0.945c-0.522,0-0.945-0.423-0.945-0.945
			c0-0.522,0.423-0.945,0.945-0.945C201.679,85.745,202.102,86.168,202.102,86.689z"/>
		<circle style="fill:#1B2F47;" cx="219.866" cy="60.044" r="1.512"/>
		<path style="fill:#1B2F47;" d="M313.976,114.091c0,0.417-0.338,0.756-0.756,0.756c-0.417,0-0.756-0.339-0.756-0.756
			c0-0.417,0.339-0.756,0.756-0.756C313.637,113.335,313.976,113.674,313.976,114.091z"/>
		<path style="fill:#1B2F47;" d="M388.055,134.311c0,0.731-0.592,1.323-1.323,1.323c-0.73,0-1.323-0.592-1.323-1.323
			c0-0.731,0.592-1.323,1.323-1.323C387.462,132.989,388.055,133.581,388.055,134.311z"/>
		<path style="fill:#1B2F47;" d="M424.338,162.469c0,1.044-0.846,1.89-1.89,1.89s-1.89-0.846-1.89-1.89s0.846-1.89,1.89-1.89
			S424.338,161.425,424.338,162.469z"/>
		<path style="fill:#1B2F47;" d="M260.306,207.634c0,0.522-0.423,0.945-0.945,0.945c-0.522,0-0.945-0.423-0.945-0.945
			c0-0.522,0.423-0.945,0.945-0.945C259.884,206.69,260.306,207.113,260.306,207.634z"/>
		<path style="fill:#1B2F47;" d="M188.874,182.501c0,1.252-1.015,2.268-2.268,2.268c-1.253,0-2.268-1.015-2.268-2.268
			c0-1.252,1.015-2.268,2.268-2.268C187.858,180.233,188.874,181.248,188.874,182.501z"/>
		<path style="fill:#1B2F47;" d="M139.74,101.808c0,1.148-0.931,2.079-2.079,2.079c-1.148,0-2.079-0.931-2.079-2.079
			c0-1.148,0.931-2.079,2.079-2.079C138.809,99.729,139.74,100.66,139.74,101.808z"/>
		<path style="fill:#1B2F47;" d="M347.614,42.847c0,0.939-0.761,1.701-1.701,1.701c-0.939,0-1.701-0.761-1.701-1.701
			c0-0.939,0.761-1.701,1.701-1.701C346.852,41.146,347.614,41.908,347.614,42.847z"/>
		<path style="fill:#1B2F47;" d="M417.535,12.989c0,0.731-0.592,1.323-1.323,1.323c-0.731,0-1.323-0.592-1.323-1.323
			s0.592-1.323,1.323-1.323C416.943,11.666,417.535,12.258,417.535,12.989z"/>
		<path style="fill:#1B2F47;" d="M282.606,33.02c0,0.731-0.592,1.323-1.323,1.323s-1.323-0.592-1.323-1.323
			c0-0.731,0.592-1.323,1.323-1.323S282.606,32.29,282.606,33.02z"/>
		<path style="fill:#1B2F47;" d="M315.488,70.627c0,1.044-0.846,1.89-1.89,1.89s-1.89-0.846-1.89-1.89c0-1.044,0.846-1.89,1.89-1.89
			S315.488,69.583,315.488,70.627z"/>
		<path style="fill:#1B2F47;" d="M386.165,64.768c0,1.148-0.931,2.079-2.079,2.079c-1.148,0-2.079-0.931-2.079-2.079
			c0-1.148,0.931-2.079,2.079-2.079C385.234,62.689,386.165,63.62,386.165,64.768z"/>
		<path style="fill:#DE0040;" d="M202.102,21.682c0,1.148-0.931,2.079-2.079,2.079c-1.148,0-2.079-0.931-2.079-2.079
			s0.931-2.079,2.079-2.079C201.171,19.603,202.102,20.534,202.102,21.682z"/>
		<path style="fill:#DE0040;" d="M285.251,117.682c0,0.939-0.761,1.701-1.701,1.701c-0.939,0-1.701-0.761-1.701-1.701
			s0.761-1.701,1.701-1.701C284.49,115.981,285.251,116.742,285.251,117.682z"/>
		<path style="fill:#DE0040;" d="M313.976,167.949c0,1.148-0.931,2.079-2.079,2.079s-2.079-0.931-2.079-2.079
			c0-1.148,0.931-2.079,2.079-2.079S313.976,166.801,313.976,167.949z"/>
		<circle style="fill:#DE0040;" cx="407.33" cy="139.414" r="2.268"/>
		<circle style="fill:#DE0040;" cx="281.661" cy="188.359" r="2.457"/>
		<path style="fill:#DE0040;" d="M184.338,129.209c0,1.044-0.846,1.89-1.89,1.89s-1.89-0.846-1.89-1.89
			c0-1.044,0.846-1.89,1.89-1.89S184.338,128.165,184.338,129.209z"/>
	</g>
	<g>
		<defs>
			<rect id="SVGID_1_" y="0" width="432" height="288"/>
		</defs>
		<clipPath id="SVGID_00000124850888386382964900000016474867313618681221_">
			<use xlink:href="#SVGID_1_"  style="overflow:visible;"/>
		</clipPath>
		<g style="clip-path:url(#SVGID_00000124850888386382964900000016474867313618681221_);">
			<g>
				<path style="fill:#DE0040;" d="M359.118,143.137c0,0,4.204-6.158,10.598-6.479c8.009-0.412,13.422,5.292,13.827,11.74
					c0.397,6.355-5.762,12.742-9.615,16.415c-8.265,7.887-11.941,10.257-14.733,12.868c-2.802-2.602-6.485-4.942-14.787-12.796
					c-3.87-3.653-10.057-10.017-9.686-16.384c0.376-6.443,5.762-12.159,13.769-11.798
					C354.889,137.001,359.118,143.137,359.118,143.137z"/>
				<g>
					<rect x="358.9" y="-23.719" style="fill:#DE0040;" width="0.437" height="166.856"/>
				</g>
			</g>
			<g>
				<path style="fill:#DE0040;" d="M210.587,101.536c0,0,3.184-4.663,8.026-4.907c6.066-0.312,10.165,4.008,10.471,8.891
					c0.3,4.813-4.364,9.65-7.282,12.432c-6.26,5.973-9.043,7.768-11.158,9.745c-2.122-1.97-4.911-3.743-11.199-9.691
					c-2.931-2.767-7.616-7.586-7.335-12.408c0.285-4.88,4.364-9.208,10.428-8.935C207.383,96.888,210.587,101.536,210.587,101.536z"
					/>
				<g>
					<rect x="210.421" y="2.076" style="fill:#DE0040;" width="0.331" height="99.46"/>
				</g>
			</g>
			<g>
				<path style="fill:#DE0040;" d="M255.216,149.351c6.752,0,10.591,4.881,10.894,9.701c0.372,5.966-7.258,13.24-9.767,15.632
					c-6.026,5.75-9.884,8.893-12.702,11.188c-0.495,0.403-0.959,0.781-1.398,1.143c-0.448-0.366-0.92-0.747-1.426-1.154
					c-2.824-2.277-6.691-5.395-12.731-11.109c-2.518-2.377-10.179-9.609-9.831-15.597c0.283-4.843,4.131-9.745,10.937-9.746
					c0.211,0,0.423,0.005,0.633,0.014c5.193,0.241,9.02,5.594,9.047,5.632l3.309,4.8l3.288-4.815
					c0.037-0.054,3.834-5.41,9.023-5.671C254.736,149.358,254.978,149.351,255.216,149.351 M255.216,145.351
					c-0.305,0-0.616,0.008-0.928,0.024c-7.313,0.368-12.122,7.411-12.122,7.411s-4.838-7.018-12.155-7.358
					c-0.276-0.012-0.548-0.019-0.818-0.019c-8.705,0-14.512,6.365-14.93,13.512c-0.424,7.283,6.652,14.561,11.078,18.739
					c9.496,8.982,13.708,11.659,16.913,14.635c3.194-2.986,7.398-5.697,16.851-14.718c4.408-4.202,11.451-11.506,10.997-18.775
					C269.655,151.68,263.865,145.351,255.216,145.351L255.216,145.351z"/>
				<g>
					<rect x="241.916" y="-23.719" style="fill:#DE0040;" width="0.5" height="176.505"/>
				</g>
			</g>
			<g>
				<path style="fill:#DE0040;" d="M305.203,203.159c4.893,0,7.675,3.537,7.894,7.03c0.27,4.324-5.26,9.595-7.078,11.328
					c-4.367,4.167-7.163,6.445-9.205,8.108c-0.359,0.292-0.695,0.566-1.013,0.828c-0.325-0.265-0.667-0.541-1.033-0.836
					c-2.046-1.65-4.849-3.91-9.226-8.051c-1.825-1.722-7.377-6.964-7.124-11.303c0.205-3.509,2.994-7.062,7.926-7.062
					c0.153,0,0.307,0.004,0.459,0.01c3.763,0.174,6.537,4.054,6.556,4.081l2.398,3.479l2.383-3.49
					c0.027-0.039,2.778-3.921,6.539-4.11C304.855,203.163,305.031,203.159,305.203,203.159 M305.203,200.26
					c-0.221,0-0.446,0.006-0.673,0.017c-5.3,0.267-8.784,5.37-8.784,5.37s-3.506-5.086-8.809-5.332
					c-0.2-0.009-0.397-0.014-0.593-0.014c-6.309,0-10.517,4.612-10.82,9.792c-0.307,5.277,4.82,10.552,8.028,13.58
					c6.882,6.509,9.934,8.449,12.257,10.606c2.315-2.164,5.361-4.129,12.212-10.666c3.194-3.045,8.299-8.339,7.97-13.606
					C315.667,204.846,311.471,200.26,305.203,200.26L305.203,200.26z"/>
				<g>
					<rect x="295.565" y="-23.719" style="fill:#DE0040;" width="0.362" height="229.367"/>
				</g>
			</g>
			<g>
				<path style="fill:#1B2F47;" d="M402.998,179.442c4.893,0,7.675,3.537,7.894,7.03c0.27,4.324-5.26,9.595-7.078,11.328
					c-4.367,4.167-7.163,6.445-9.205,8.108c-0.359,0.292-0.695,0.566-1.013,0.828c-0.325-0.265-0.667-0.541-1.033-0.836
					c-2.046-1.65-4.849-3.91-9.226-8.05c-1.824-1.722-7.377-6.964-7.124-11.303c0.205-3.509,2.994-7.062,7.926-7.062
					c0.153,0,0.307,0.003,0.459,0.01c3.763,0.174,6.537,4.054,6.556,4.081l2.398,3.479l2.383-3.49
					c0.027-0.039,2.778-3.921,6.539-4.11C402.651,179.447,402.826,179.442,402.998,179.442 M402.998,176.543
					c-0.221,0-0.446,0.006-0.673,0.017c-5.3,0.267-8.784,5.37-8.784,5.37s-3.506-5.086-8.809-5.332
					c-0.2-0.009-0.397-0.013-0.593-0.013c-6.309,0-10.517,4.612-10.82,9.792c-0.307,5.277,4.82,10.552,8.028,13.58
					c6.882,6.509,9.934,8.449,12.257,10.606c2.315-2.164,5.361-4.128,12.212-10.666c3.194-3.045,8.299-8.339,7.97-13.606
					C413.462,181.13,409.266,176.543,402.998,176.543L402.998,176.543z"/>
				<g>
					<rect x="393.36" y="-23.719" style="fill:#1B2F47;" width="0.362" height="205.65"/>
				</g>
			</g>
			<g>
				<path style="fill:#1B2F47;" d="M268.694,70.664c0,0,4.112-6.023,10.367-6.338c7.834-0.403,13.129,5.177,13.524,11.484
					c0.388,6.216-5.636,12.463-9.405,16.057c-8.085,7.715-11.68,10.033-14.411,12.587c-2.741-2.545-6.343-4.834-14.464-12.516
					c-3.786-3.574-9.837-9.798-9.474-16.026c0.368-6.302,5.636-11.893,13.468-11.54C264.556,64.662,268.694,70.664,268.694,70.664z"
					/>
				<g>
					<rect x="268.48" y="-23.719" style="fill:#1B2F47;" width="0.428" height="94.383"/>
				</g>
			</g>
			<g>
				<path style="fill:#1B2F47;" d="M342.154,86.094c5.444,0,8.539,3.935,8.782,7.821c0.3,4.81-5.851,10.674-7.874,12.602
					c-4.858,4.636-7.969,7.17-10.24,9.02c-0.399,0.325-0.773,0.629-1.127,0.922c-0.361-0.295-0.742-0.602-1.149-0.93
					c-2.276-1.836-5.394-4.35-10.264-8.956c-2.03-1.916-8.206-7.747-7.925-12.574c0.228-3.904,3.33-7.857,8.817-7.857
					c0.17,0,0.341,0.004,0.51,0.011c4.186,0.194,7.272,4.51,7.294,4.541l2.668,3.87l2.651-3.882c0.03-0.044,3.091-4.362,7.275-4.572
					C341.767,86.099,341.962,86.094,342.154,86.094 M342.154,82.869c-0.246,0-0.497,0.007-0.749,0.019
					c-5.896,0.297-9.772,5.975-9.772,5.975s-3.9-5.658-9.8-5.932c-0.222-0.01-0.442-0.015-0.66-0.015
					c-7.018,0-11.7,5.131-12.037,10.894c-0.342,5.871,5.362,11.739,8.931,15.107c7.655,7.242,11.052,9.4,13.635,11.799
					c2.575-2.408,5.964-4.593,13.585-11.865c3.553-3.387,9.232-9.276,8.866-15.136C353.794,87.971,349.126,82.869,342.154,82.869
					L342.154,82.869z"/>
				<g>
					<rect x="331.431" y="-23.719" style="fill:#1B2F47;" width="0.403" height="112.582"/>
				</g>
			</g>
			<g>
				<path style="fill:#1B2F47;" d="M177.973,68.962c5.444,0,8.539,3.935,8.782,7.821c0.3,4.81-5.852,10.674-7.874,12.602
					c-4.858,4.636-7.969,7.17-10.24,9.02c-0.399,0.325-0.773,0.63-1.127,0.922c-0.361-0.295-0.742-0.602-1.149-0.93
					c-2.277-1.836-5.394-4.35-10.264-8.956c-2.03-1.916-8.206-7.747-7.925-12.574c0.228-3.904,3.33-7.857,8.817-7.857
					c0.17,0,0.341,0.004,0.51,0.012c4.186,0.194,7.272,4.51,7.294,4.541l2.668,3.87l2.65-3.882c0.03-0.044,3.091-4.362,7.275-4.572
					C177.587,68.966,177.782,68.962,177.973,68.962 M177.973,65.737c-0.246,0-0.497,0.006-0.749,0.019
					c-5.896,0.297-9.772,5.975-9.772,5.975s-3.9-5.658-9.8-5.932c-0.222-0.01-0.442-0.015-0.66-0.015
					c-7.018,0-11.7,5.131-12.037,10.894c-0.342,5.871,5.363,11.739,8.931,15.107c7.656,7.242,11.052,9.4,13.635,11.799
					c2.575-2.408,5.964-4.593,13.585-11.865c3.553-3.387,9.232-9.276,8.866-15.136C189.614,70.839,184.946,65.737,177.973,65.737
					L177.973,65.737z"/>
				<g>
					<rect x="167.251" y="-23.719" style="fill:#1B2F47;" width="0.403" height="95.45"/>
				</g>
			</g>
		</g>
	</g>
</g>
</svg>
